<svg xmlns="http://www.w3.org/2000/svg" width="256" height="257" viewBox="0 0 256 257">
  <defs>
    <linearGradient id="a" x1="-.828%" x2="57.636%" y1="7.652%" y2="78.411%">
      <stop stop-color="#41D1FF" offset="0%"/>
      <stop stop-color="#BD34FE" offset="100%"/>
    </linearGradient>
    <linearGradient id="b" x1="43.376%" x2="50.316%" y1="2.241%" y2="89.95%">
      <stop stop-color="#FFEA83" offset="0%"/>
      <stop stop-color="#FFDD35" offset="8.1%"/>
      <stop stop-color="#FFA800" offset="100%"/>
    </linearGradient>
  </defs>
  <path fill="url(#a)" d="M255.153 37.563L134.897 252.131c-4.927 8.755-17.522 8.809-22.514.098L.874 37.563c-5.468-9.46 3.77-20.495 14.38-17.313l111.68 33.178a12.637 12.637 0 007.207-.001l106.59-33.09c10.606-3.29 19.86 7.86 14.407 17.318z"/>
  <path fill="url(#b)" d="M185.432.063L96.44 28.53a6.319 6.319 0 00-4.335 6.352l4.887 82.197a6.318 6.318 0 009.57 4.847l24.004-14.882a6.319 6.319 0 016.603-.034l63.468 38.463a6.318 6.318 0 009.565-4.852l9.366-125.799a6.319 6.319 0 00-8.155-6.35L185.432.063z"/>
</svg>
